# xmcd CD database file generated by OrangeCD 4.3
#
# Track frame offsets:
#	150
#	10707
#	21045
#	32755
#	43567
#	56022
#	67205
#	80105
#	91495
#	101740
#	112707
#	122067
#	132582
#	145330
#
# Disc length: 2066 seconds
#
# Revision: 2
# Processed by: cddbd v1.4PL0 Copyright (c) Steve Scherf et al.
# Submitted via: OrangeCD 4.3
#
DISCID=c108100e
DTITLE=Various Artist - The Best Of ACE Records
DYEAR=1993
DGENRE=Blues
TTITLE0=Huey "Piano" Smith and The Clowns - Rockin' Pneumonia and The Boogie Woogie
TTITLE0=Flu
TTITLE1=Junior Gordon and Huey Smith Orch. - Blow Wind Blow
TTITLE2=Al Collins and Orchestra - I Got The Blues For You
TTITLE3=Earl King - Those Lonely Lonely Nights
TTITLE4=Huey "Piano" Smith and The Clowns - High Blood Pressure
TTITLE5=Little Bo and His Orchestra - So Glad
TTITLE6=Alvvin "Red" Tyler - Gee Baby
TTITLE7=Huey "Piano" Smith and The Clowns - Don't You Just Know It
TTITLE8=Huey "Piano" Smith and The Clowns - Chickee Wah Wah
TTITLE9=Huey "Piano" Smith and The Clowns - Don't You Know Yockomo
TTITLE10=Silhouettes - I Sold My Heart To The Junkman
TTITLE11=Bobby Marchan and The Clowns - Rockin' Behind The Iron Curtain
TTITLE12=Al Collins - Shuckin' Stuff
TTITLE13=Huey Smith and His Rhythm Aces - Little Liza Jane
EXTD=
EXTT0=
EXTT1=
EXTT2=
EXTT3=
EXTT4=
EXTT5=
EXTT6=
EXTT7=
EXTT8=
EXTT9=
EXTT10=
EXTT11=
EXTT12=
EXTT13=
PLAYORDER=
